# xmcd CD database file
#
# Track frame offsets:
#	182
#	22697
#	41630
#	57380
#	72947
#	89905
#	112267
#	128345
#	139955
#	160427
#	179270
#	200087
#
# Disc length: 2993 seconds
#
# Revision: 0
# Processed by: cddbd v1.5.1PL2 Copyright (c) Steve Scherf et al.
# Submitted via: CDex 1.51
#
DISCID=b20baf0c
DTITLE=Subsonica Orchestra - Song of ocarina
DYEAR=1998
DGENRE=New Age
TTITLE0=Concierto de Aranjuez
TTITLE1=Conquest of paradise
TTITLE2=Orinoco flow
TTITLE3=Moonlight shadow
TTITLE4=Unchained melody
TTITLE5=song od ocarina
TTITLE6=Dolanne's melodie
TTITLE7=What a wonderful world
TTITLE8=the power of love
TTITLE9=bolero
TTITLE10=flower's love (la aventura de las plantas)
TTITLE11=song of the seas
EXTD=YEAR: 1998
EXTT0=
EXTT1=
EXTT2=
EXTT3=
EXTT4=
EXTT5=
EXTT6=
EXTT7=
EXTT8=
EXTT9=
EXTT10=
EXTT11=
PLAYORDER=
